<?xml version="1.0" standalone="no"?>
<!DOCTYPE svg PUBLIC "-//W3C//DTD SVG 20010904//EN"
 "http://www.w3.org/TR/2001/REC-SVG-20010904/DTD/svg10.dtd">
<svg version="1.0" xmlns="http://www.w3.org/2000/svg"
 width="306.000000pt" height="107.000000pt" viewBox="0 0 306.000000 107.000000"
 preserveAspectRatio="xMidYMid meet">

<g transform="translate(0.000000,107.000000) scale(0.100000,-0.100000)"
fill="#000000" stroke="none">
<path d="M1025 939 c-139 -16 -358 -75 -615 -165 -89 -31 -121 -37 -210 -40
l-105 -4 -1 -42 c-5 -146 -17 -234 -34 -253 -17 -18 -17 -24 -4 -74 7 -30 23
-64 34 -76 29 -31 105 -70 173 -90 58 -17 59 -17 83 6 13 12 25 21 27 18 2 -2
13 -20 27 -40 64 -97 201 -130 310 -74 29 15 90 79 90 95 0 16 22 11 45 -10
21 -19 27 -20 291 -9 233 10 891 5 1015 -7 27 -2 42 2 54 17 25 26 37 24 57
-10 23 -42 91 -88 146 -100 90 -19 194 20 243 91 12 18 24 35 26 37 2 3 14 -6
27 -18 24 -22 28 -23 104 -12 85 11 192 46 192 63 0 5 -9 12 -20 15 -27 7 -25
21 6 54 20 21 26 37 26 74 0 58 -14 74 -111 127 -203 110 -271 136 -421 162
-92 16 -406 40 -419 31 -5 -2 -37 9 -72 26 -134 65 -247 106 -534 196 -61 19
-312 26 -430 12z m-375 -141 c-25 -41 -25 -45 1 -58 19 -11 51 -15 294 -41
134 -14 380 -28 600 -34 99 -3 211 -7 249 -10 37 -2 91 1 120 6 79 16 415 12
536 -6 110 -16 194 -36 206 -48 4 -4 14 -7 23 -7 18 0 107 -45 131 -66 9 -7
49 -31 90 -52 59 -31 75 -44 77 -63 2 -14 0 -18 -4 -9 -9 22 -35 39 -60 40
-12 0 -28 7 -37 15 -8 8 -18 15 -22 15 -4 0 -4 -3 -1 -6 4 -4 -3 -15 -15 -25
-22 -20 -43 -26 -34 -10 10 16 -28 23 -39 7 -10 -13 -17 -7 -48 34 -62 82
-130 121 -237 134 -67 8 -157 -12 -212 -49 -33 -22 -78 -73 -109 -125 -5 -10
-11 -11 -16 -5 -5 7 -124 11 -328 12 -176 1 -397 5 -490 9 -159 6 -221 2 -325
-22 -20 -4 -22 -3 -10 5 13 9 11 11 -7 11 -38 0 -55 -10 -42 -26 8 -10 8 -14
1 -14 -6 0 -24 19 -41 43 -42 62 -105 115 -170 145 -72 34 -177 34 -263 2 -59
-22 -131 -83 -165 -141 -18 -29 -33 -38 -33 -18 0 7 -21 10 -60 7 -33 -1 -61
1 -63 6 -2 5 -16 -3 -32 -18 -15 -14 -31 -24 -34 -20 -3 3 1 11 10 17 13 10
16 31 16 107 -1 57 4 104 11 117 8 14 9 24 2 28 -5 3 -10 13 -10 21 0 11 19
14 99 14 91 0 109 3 232 46 144 49 184 61 211 63 16 1 16 -2 -2 -31z m36 -323
c79 -46 111 -137 79 -221 -9 -25 -20 -43 -23 -40 -3 3 0 16 7 29 14 27 11 99
-5 104 -17 6 -79 -41 -82 -63 -3 -23 40 -90 56 -87 18 4 14 -5 -7 -16 -15 -9
-26 -4 -57 24 -21 19 -46 35 -55 35 -22 0 -79 -47 -79 -66 0 -25 -22 -15 -61
26 -83 87 -55 229 56 285 47 23 121 19 171 -10z m1880 -11 c52 -42 74 -88 74
-154 0 -40 -6 -62 -21 -80 l-20 -25 16 39 c17 44 20 92 5 101 -6 3 -28 -4 -50
-16 -29 -17 -40 -29 -40 -47 0 -31 30 -82 49 -82 11 0 11 -4 -3 -19 -17 -19
-18 -19 -48 15 -46 52 -72 54 -118 9 -27 -26 -44 -36 -56 -31 -16 6 -16 8 -1
19 18 13 37 58 37 87 0 21 -73 65 -90 55 -15 -9 -12 -51 5 -92 21 -49 18 -55
-6 -11 -67 128 28 275 173 265 46 -2 65 -9 94 -33z m324 -24 c0 -5 -7 -7 -15
-4 -8 4 -15 8 -15 10 0 2 7 4 15 4 8 0 15 -4 15 -10z m-1262 -7 c-10 -2 -26
-2 -35 0 -10 3 -2 5 17 5 19 0 27 -2 18 -5z"/>
<path d="M1183 613 c9 -2 23 -2 30 0 6 3 -1 5 -18 5 -16 0 -22 -2 -12 -5z"/>
<path d="M1053 543 c9 -2 23 -2 30 0 6 3 -1 5 -18 5 -16 0 -22 -2 -12 -5z"/>
<path d="M1185 519 c115 -21 214 -32 282 -32 40 1 71 -2 70 -6 -3 -10 8 -11
131 -10 169 1 101 15 -115 24 -98 4 -194 10 -213 15 -19 5 -73 11 -120 14 -71
4 -77 3 -35 -5z"/>
<path d="M1820 491 c36 -4 79 -4 95 0 18 4 -9 7 -65 6 -90 0 -92 0 -30 -6z"/>
<path d="M614 465 c-3 -8 -2 -32 3 -52 8 -35 11 -38 48 -41 23 -2 48 3 59 11
19 14 19 14 0 34 -20 22 -84 63 -97 63 -4 0 -10 -7 -13 -15z"/>
<path d="M500 448 c-64 -44 -65 -70 -4 -81 43 -8 64 10 71 61 5 37 3 42 -14
42 -11 0 -35 -10 -53 -22z"/>
<path d="M562 348 c-19 -19 -14 -55 10 -72 19 -13 25 -14 43 -2 26 17 31 49
10 70 -19 19 -46 21 -63 4z m48 -39 c0 -5 -7 -9 -15 -9 -15 0 -20 12 -9 23 8
8 24 -1 24 -14z"/>
<path d="M431 330 c-16 -9 -6 -67 20 -109 28 -46 45 -39 68 28 9 29 8 37 -5
52 -20 23 -67 39 -83 29z"/>
<path d="M2380 459 c-41 -24 -76 -67 -64 -79 18 -16 84 -18 99 -3 16 15 21 88
7 97 -4 2 -23 -4 -42 -15z"/>
<path d="M2480 444 c0 -54 15 -74 56 -74 19 0 44 5 56 11 20 11 19 11 -8 41
-24 26 -79 58 -99 58 -3 0 -5 -16 -5 -36z"/>
<path d="M2425 340 c-27 -30 -7 -70 35 -70 42 0 62 40 35 70 -10 11 -26 20
-35 20 -9 0 -25 -9 -35 -20z m45 -25 c0 -8 -4 -15 -10 -15 -5 0 -10 7 -10 15
0 8 5 15 10 15 6 0 10 -7 10 -15z"/>
</g>
</svg>
