<?xml version="1.0" standalone="no"?>
<!DOCTYPE svg PUBLIC "-//W3C//DTD SVG 20010904//EN"
 "http://www.w3.org/TR/2001/REC-SVG-20010904/DTD/svg10.dtd">
<svg version="1.0" xmlns="http://www.w3.org/2000/svg"
 width="309.000000pt" height="133.000000pt" viewBox="0 0 309.000000 133.000000"
 preserveAspectRatio="xMidYMid meet">

<g transform="translate(0.000000,133.000000) scale(0.100000,-0.100000)"
fill="#000000" stroke="none">
<path d="M910 1190 c-58 -4 -175 -18 -260 -30 -85 -11 -195 -24 -243 -27 -82
-5 -88 -7 -85 -27 2 -12 13 -25 26 -31 29 -13 28 -26 -4 -56 -14 -13 -47 -53
-72 -89 -25 -36 -57 -77 -70 -92 -23 -25 -26 -38 -30 -135 -4 -84 -9 -114 -23
-135 -22 -30 -24 -74 -8 -150 16 -72 72 -129 149 -151 31 -9 65 -14 76 -11 15
4 22 -2 33 -31 17 -49 65 -101 115 -128 57 -30 155 -30 212 0 43 23 98 79 116
119 11 22 13 23 34 9 19 -12 65 -13 329 -6 279 8 647 2 877 -14 80 -6 91 -4
115 14 l26 21 28 -48 c54 -95 165 -139 269 -109 65 19 121 62 144 112 18 38
30 44 40 19 5 -14 16 -15 68 -10 80 9 115 24 159 69 31 31 37 44 43 98 11 106
8 133 -19 169 -14 19 -25 41 -25 49 0 9 -9 35 -19 58 -15 32 -31 48 -70 67
-75 38 -239 81 -427 112 -112 18 -176 33 -189 44 -37 31 -159 101 -275 157
-276 133 -269 130 -390 147 -134 20 -495 28 -650 16z m-100 -311 c69 -5 166
-14 215 -19 50 -5 191 -17 315 -25 124 -8 322 -21 440 -30 410 -27 402 -27
443 -10 40 17 76 15 252 -12 107 -16 297 -62 356 -87 41 -17 63 -46 74 -96 4
-19 16 -47 26 -62 20 -27 25 -74 11 -96 -7 -9 -13 -8 -27 8 -18 20 -41 28 -30
10 3 -5 1 -10 -4 -10 -6 0 -11 6 -11 13 0 8 -3 8 -9 -2 -8 -12 -12 -12 -24 -2
-8 6 -25 14 -37 16 -19 4 -21 1 -15 -28 l7 -32 -26 34 c-14 19 -26 38 -26 41
0 4 -22 30 -49 57 -65 67 -133 93 -241 93 -133 0 -224 -49 -296 -159 -25 -39
-29 -42 -32 -23 -2 12 -8 22 -13 22 -6 0 -7 -9 -3 -22 7 -22 6 -22 -20 -4 -22
14 -30 15 -42 5 -10 -8 -14 -8 -14 0 0 16 -32 13 -59 -5 -19 -14 -31 -15 -79
-6 -132 25 -313 34 -563 27 -344 -9 -349 -9 -349 -16 0 -4 -7 -9 -15 -13 -10
-3 -20 5 -29 22 -31 60 -104 129 -168 158 -54 24 -76 28 -148 28 -71 1 -94 -4
-142 -26 -65 -30 -135 -96 -161 -150 -23 -48 -37 -56 -38 -21 -1 17 -3 21 -6
11 -5 -19 -18 -24 -27 -9 -5 7 -28 8 -58 2 -3 0 -4 -11 0 -23 5 -21 4 -22 -11
-9 -21 17 -24 113 -4 130 10 7 16 49 20 128 6 110 8 119 32 140 22 20 115 53
185 66 31 6 232 -1 400 -14z m-123 -390 c61 -23 122 -109 123 -171 0 -33 -29
-108 -41 -108 -5 0 -3 13 6 30 17 32 20 96 6 105 -12 7 -71 -26 -85 -47 -8
-13 -5 -28 12 -63 12 -25 27 -45 34 -45 8 -1 6 -6 -5 -14 -17 -13 -22 -10 -54
25 -19 21 -44 39 -55 39 -11 0 -38 -17 -59 -38 -34 -35 -40 -37 -61 -26 -19
11 -20 13 -5 14 19 0 47 54 47 89 0 22 -45 51 -80 51 -27 0 -27 -42 0 -93 21
-38 14 -53 -7 -17 -22 35 -31 98 -21 140 12 45 59 103 103 125 35 17 102 20
142 4z m1853 -11 c54 -28 87 -74 96 -135 7 -50 -7 -113 -31 -133 -12 -10 -12
-6 2 20 16 33 23 103 11 115 -9 9 -85 -32 -91 -50 -8 -20 7 -59 34 -86 21 -21
22 -22 3 -36 -15 -11 -20 -11 -23 -1 -5 19 -64 68 -81 68 -17 -1 -80 -55 -80
-70 0 -14 -13 -12 -36 5 -16 12 -17 14 -2 15 10 0 23 17 34 46 l18 47 -28 23
c-15 14 -40 24 -57 24 -24 0 -29 -4 -29 -23 0 -12 9 -40 20 -62 23 -45 24 -49
10 -40 -23 14 -42 80 -36 129 7 64 43 118 98 145 55 27 112 27 168 -1z m-520
-44 c0 -2 -9 -4 -21 -4 -11 0 -18 4 -14 10 5 8 35 3 35 -6z"/>
<path d="M1555 750 c3 -5 10 -10 16 -10 5 0 9 5 9 10 0 6 -7 10 -16 10 -8 0
-12 -4 -9 -10z"/>
<path d="M2920 464 c0 -8 5 -12 10 -9 6 4 8 11 5 16 -9 14 -15 11 -15 -7z"/>
<path d="M548 464 c-34 -18 -82 -75 -71 -85 4 -4 24 -10 43 -14 49 -9 70 10
73 64 2 49 -6 55 -45 35z"/>
<path d="M647 473 c-11 -10 -8 -62 3 -84 8 -14 21 -19 54 -19 63 0 74 19 33
57 -28 27 -68 53 -80 53 -2 0 -7 -3 -10 -7z"/>
<path d="M585 336 c-19 -29 -8 -61 25 -71 42 -13 74 43 44 76 -23 26 -50 24
-69 -5z m55 -26 c0 -5 -9 -10 -20 -10 -11 0 -20 5 -20 10 0 6 9 10 20 10 11 0
20 -4 20 -10z"/>
<path d="M2367 450 c-38 -24 -68 -64 -55 -75 10 -9 85 -14 97 -6 16 10 27 96
14 104 -6 4 -31 -7 -56 -23z"/>
<path d="M2474 465 c-3 -8 -2 -32 3 -52 8 -34 13 -38 42 -41 45 -5 81 5 81 21
0 17 -36 50 -77 71 -39 20 -42 20 -49 1z"/>
<path d="M2426 344 c-21 -21 -20 -47 3 -68 25 -22 54 -14 69 19 10 21 9 28 -8
45 -24 24 -43 25 -64 4z m44 -35 c0 -5 -7 -9 -15 -9 -15 0 -20 12 -9 23 8 8
24 -1 24 -14z"/>
</g>
</svg>
