<?xml version="1.0" standalone="no"?>
<!DOCTYPE svg PUBLIC "-//W3C//DTD SVG 20010904//EN"
 "http://www.w3.org/TR/2001/REC-SVG-20010904/DTD/svg10.dtd">
<svg version="1.0" xmlns="http://www.w3.org/2000/svg"
 width="338.000000pt" height="124.000000pt" viewBox="0 0 338.000000 124.000000"
 preserveAspectRatio="xMidYMid meet">

<g transform="translate(0.000000,124.000000) scale(0.100000,-0.100000)"
fill="#000000" stroke="none">
<path d="M1255 1079 c-228 -12 -401 -50 -600 -134 -277 -117 -297 -123 -409
-137 -77 -9 -111 -17 -116 -28 -14 -28 -43 -115 -54 -162 -6 -25 -22 -58 -34
-71 -21 -22 -23 -31 -17 -80 9 -73 33 -110 97 -147 63 -36 127 -56 223 -69 59
-9 72 -8 87 6 21 18 20 19 41 -22 54 -106 194 -156 302 -106 38 17 107 83 117
111 3 10 9 10 28 0 33 -18 1605 -19 1623 -1 16 16 25 14 31 -7 10 -29 68 -84
111 -103 49 -23 133 -24 183 -4 41 18 112 82 112 102 0 18 16 16 46 -3 44 -29
230 -6 277 34 16 14 16 17 1 33 -15 17 -15 21 0 53 26 56 21 117 -14 161 -16
21 -30 42 -30 48 0 21 -54 80 -84 92 -75 31 -372 88 -641 121 -136 17 -142 19
-217 65 -112 68 -309 162 -413 197 -135 46 -369 65 -650 51z m-110 -298 c132
-6 341 -13 465 -16 802 -19 1434 -80 1571 -151 26 -13 59 -54 59 -74 0 -10 8
-22 39 -56 7 -8 10 -18 6 -22 -3 -4 -11 2 -17 12 -8 15 -12 16 -19 5 -6 -10
-9 -8 -9 9 0 12 -4 22 -10 22 -5 0 -10 -3 -10 -7 0 -5 -25 -8 -55 -8 -30 0
-55 4 -55 9 0 4 -11 1 -24 -8 -24 -15 -25 -14 -66 34 -57 68 -129 102 -229
108 -107 6 -176 -21 -254 -98 -55 -54 -60 -58 -90 -49 -17 5 -339 9 -716 9
-376 0 -687 2 -689 5 -3 3 -11 0 -18 -6 -11 -9 -15 -7 -21 7 -6 17 -8 17 -13
-4 -5 -21 -8 -19 -62 32 -77 75 -126 98 -215 104 -115 7 -204 -26 -282 -106
l-33 -35 -144 -1 c-79 0 -144 2 -144 5 0 4 -9 9 -20 12 -11 3 -18 1 -14 -4 3
-5 1 -17 -5 -26 -8 -16 -10 -14 -16 10 -6 21 -2 34 14 51 11 12 21 32 21 44 0
13 9 48 20 79 11 32 20 67 20 80 0 12 5 25 12 29 33 21 575 23 1003 5z m-385
-283 c53 -27 87 -74 95 -133 7 -46 -9 -108 -34 -128 -11 -10 -11 -6 1 18 21
42 30 87 19 104 -8 12 -14 12 -39 2 -17 -7 -38 -21 -47 -31 -15 -17 -15 -21 4
-63 11 -25 26 -47 33 -49 8 -3 5 -9 -10 -17 -18 -10 -22 -9 -22 3 0 22 -66 69
-87 62 -22 -8 -69 -48 -74 -64 -3 -8 -9 -8 -19 -2 -11 8 -12 12 -3 18 20 13
42 86 32 104 -11 19 -74 42 -89 33 -15 -9 -4 -60 22 -105 l20 -35 -21 19 c-49
44 -51 152 -4 215 30 39 93 70 143 71 20 0 56 -10 80 -22z m2119 -11 c73 -48
100 -143 62 -213 -12 -21 -19 -30 -15 -19 14 37 17 115 4 115 -17 0 -65 -27
-79 -44 -11 -13 -9 -23 11 -58 14 -24 30 -42 37 -40 18 4 4 -16 -21 -29 -12
-7 -18 -7 -14 -1 3 6 -12 24 -34 42 -47 38 -67 34 -110 -18 -28 -34 -31 -35
-47 -19 -14 14 -15 17 -2 17 16 0 51 81 40 97 -13 20 -69 46 -86 39 -20 -7
-16 -47 9 -98 8 -15 11 -28 7 -28 -14 0 -41 70 -41 106 0 39 22 99 48 128 53
60 160 70 231 23z"/>
<path d="M700 462 c0 -57 19 -76 65 -69 53 9 63 21 39 48 -17 19 -84 59 -99
59 -3 0 -5 -17 -5 -38z"/>
<path d="M605 480 c-32 -13 -68 -57 -62 -74 5 -11 20 -16 51 -16 42 0 45 2 56
35 19 57 4 76 -45 55z"/>
<path d="M646 364 c-20 -19 -20 -24 0 -52 20 -29 50 -28 70 3 16 24 16 27 -1
45 -22 24 -48 26 -69 4z m41 -41 c-3 -3 -11 -2 -17 2 -8 5 -7 11 2 22 12 15
13 14 16 -1 2 -10 1 -20 -1 -23z"/>
<path d="M2798 482 c-3 -10 0 -34 6 -53 9 -29 16 -34 46 -37 19 -2 44 4 55 12
20 14 20 14 0 36 -17 19 -85 60 -98 60 -3 0 -7 -8 -9 -18z"/>
<path d="M2705 480 c-32 -13 -68 -57 -62 -74 8 -20 80 -22 95 -3 9 11 16 46
13 75 -1 14 -17 15 -46 2z"/>
<path d="M2740 355 c-12 -23 -12 -28 7 -46 39 -40 104 11 67 52 -24 27 -58 24
-74 -6z m50 -20 c0 -8 -4 -15 -10 -15 -5 0 -10 7 -10 15 0 8 5 15 10 15 6 0
10 -7 10 -15z"/>
</g>
</svg>
