<?xml version="1.0" standalone="no"?>
<!DOCTYPE svg PUBLIC "-//W3C//DTD SVG 20010904//EN"
 "http://www.w3.org/TR/2001/REC-SVG-20010904/DTD/svg10.dtd">
<svg version="1.0" xmlns="http://www.w3.org/2000/svg"
 width="337.000000pt" height="133.000000pt" viewBox="0 0 337.000000 133.000000"
 preserveAspectRatio="xMidYMid meet">

<g transform="translate(0.000000,133.000000) scale(0.100000,-0.100000)"
fill="#000000" stroke="none">
<path d="M900 1234 c-209 -13 -533 -38 -549 -43 -2 0 4 -10 15 -22 12 -14 15
-24 9 -33 -6 -7 -33 -44 -62 -82 -63 -84 -79 -134 -94 -289 -9 -101 -15 -125
-35 -152 -45 -60 -27 -182 35 -244 40 -40 74 -52 209 -74 63 -10 90 -11 99 -3
16 13 15 14 37 -45 24 -65 61 -105 121 -133 93 -44 203 -28 273 39 36 34 72
96 72 122 0 15 25 21 34 7 2 -4 233 -9 513 -10 279 -1 607 -6 728 -11 195 -8
222 -7 238 6 20 19 18 20 41 -34 22 -51 79 -107 128 -128 101 -41 235 -2 295
87 17 26 33 53 36 60 3 10 9 9 23 -4 17 -15 26 -15 92 -2 86 16 101 24 136 65
23 27 26 39 26 113 0 66 -4 88 -19 107 -10 13 -27 42 -39 64 -25 49 -53 76
-112 105 -59 30 -225 92 -325 121 -50 15 -111 43 -165 77 -137 86 -510 263
-626 296 -11 4 -85 13 -165 22 -138 14 -811 27 -969 18z m345 -340 c535 -23
976 -60 1410 -120 441 -61 537 -90 579 -177 22 -47 20 -68 -3 -39 -24 28 -34
28 -27 0 3 -13 3 -17 0 -10 -7 15 -110 17 -119 1 -4 -6 -15 -1 -28 14 -80 88
-210 127 -333 101 -73 -15 -111 -33 -159 -75 -31 -27 -37 -30 -52 -18 -15 12
-16 12 -10 -3 7 -20 2 -21 -28 -9 -11 5 -25 4 -32 -1 -7 -5 -17 -7 -23 -3 -15
9 -582 16 -576 7 2 -4 -17 -6 -42 -5 -33 2 -41 0 -27 -6 13 -5 -8 -7 -55 -5
-41 2 -156 6 -255 9 -99 2 -199 9 -223 14 -24 5 -60 5 -80 0 -21 -4 -43 -4
-55 2 -21 12 -38 2 -18 -10 8 -5 9 -11 3 -15 -5 -3 -27 10 -48 29 -139 126
-334 137 -478 27 -91 -69 -91 -69 -84 -52 5 14 -7 16 -88 15 -52 0 -94 -4 -94
-9 0 -5 -7 -2 -16 5 -13 11 -17 10 -26 -5 -8 -14 -12 -15 -25 -4 -13 10 -17
10 -20 1 -3 -7 -9 -13 -14 -13 -15 0 -10 31 11 60 14 20 22 57 30 146 6 65 16
129 21 142 l9 23 348 -3 c191 -1 473 -8 627 -14z m62 -350 c-3 -3 -12 -4 -19
-1 -8 3 -5 6 6 6 11 1 17 -2 13 -5z m-444 -33 c83 -36 131 -125 114 -211 -8
-42 -37 -90 -37 -63 0 7 4 14 9 17 15 9 23 87 10 102 -9 11 -17 10 -49 -6 -21
-10 -40 -27 -44 -36 -9 -24 33 -107 50 -100 21 8 17 -7 -5 -21 -17 -11 -25 -7
-59 27 -22 22 -46 40 -54 40 -8 0 -34 -18 -58 -40 -48 -45 -62 -43 -103 13
-81 108 -8 268 132 288 25 3 47 7 48 8 1 0 21 -8 46 -18z m2017 -1 c106 -54
144 -163 93 -263 -8 -16 -17 -27 -19 -24 -3 3 2 19 10 36 18 33 21 97 6 106
-12 7 -60 -17 -83 -43 -17 -19 -17 -21 5 -66 12 -25 29 -46 37 -46 13 -1 13
-3 -2 -15 -17 -12 -23 -9 -60 26 -23 21 -47 39 -54 39 -11 0 -80 -53 -94 -74
-4 -4 -15 -3 -25 3 -15 8 -16 10 -3 11 9 0 22 20 33 51 21 56 17 64 -38 93
-44 22 -59 11 -52 -38 4 -23 14 -52 22 -64 9 -13 14 -26 11 -28 -8 -8 -36 44
-45 83 -17 74 26 169 92 205 11 6 42 14 70 18 28 4 52 8 54 9 1 0 20 -8 42
-19z"/>
<path d="M1185 820 c3 -5 8 -10 11 -10 2 0 4 5 4 10 0 6 -5 10 -11 10 -5 0 -7
-4 -4 -10z"/>
<path d="M1770 790 c0 -5 5 -10 10 -10 6 0 10 5 10 10 0 6 -4 10 -10 10 -5 0
-10 -4 -10 -10z"/>
<path d="M3080 580 c-8 -5 -12 -12 -9 -15 8 -8 39 5 39 16 0 11 -11 11 -30 -1z"/>
<path d="M3150 579 c0 -5 5 -7 10 -4 6 3 10 8 10 11 0 2 -4 4 -10 4 -5 0 -10
-5 -10 -11z"/>
<path d="M710 479 c-46 -28 -73 -57 -67 -73 7 -17 75 -28 98 -16 28 15 38 110
11 110 -4 0 -23 -10 -42 -21z"/>
<path d="M810 471 c0 -56 16 -81 52 -81 46 0 78 10 78 24 0 14 -46 59 -77 75
-37 19 -53 14 -53 -18z"/>
<path d="M754 359 c-17 -19 -17 -23 -3 -47 18 -33 44 -39 70 -16 24 22 24 46
1 67 -25 23 -45 21 -68 -4z m56 -30 c0 -5 -7 -9 -15 -9 -8 0 -15 7 -15 15 0 9
6 12 15 9 8 -4 15 -10 15 -15z"/>
<path d="M620 318 c0 -35 37 -109 57 -115 14 -5 43 58 43 93 0 25 -42 54 -80
54 -16 0 -20 -6 -20 -32z"/>
<path d="M2725 481 c-42 -26 -68 -58 -62 -75 3 -8 23 -18 43 -22 32 -6 40 -3
56 16 21 26 25 100 6 100 -7 0 -26 -8 -43 -19z"/>
<path d="M2824 485 c-7 -18 3 -65 18 -82 14 -17 79 -16 103 1 18 13 18 14 -1
33 -24 26 -85 63 -102 63 -7 0 -15 -7 -18 -15z"/>
<path d="M2778 369 c-40 -23 -3 -98 41 -84 34 10 45 42 26 71 -16 25 -39 30
-67 13z m42 -39 c0 -5 -7 -10 -15 -10 -8 0 -15 5 -15 10 0 6 7 10 15 10 8 0
15 -4 15 -10z"/>
</g>
</svg>
