<?xml version="1.0" standalone="no"?>
<!DOCTYPE svg PUBLIC "-//W3C//DTD SVG 20010904//EN"
 "http://www.w3.org/TR/2001/REC-SVG-20010904/DTD/svg10.dtd">
<svg version="1.0" xmlns="http://www.w3.org/2000/svg"
 width="193.000000pt" height="77.000000pt" viewBox="0 0 193.000000 77.000000"
 preserveAspectRatio="xMidYMid meet">

<g transform="translate(0.000000,77.000000) scale(0.100000,-0.100000)"
fill="#000000" stroke="none">
<path d="M730 601 c-65 -10 -231 -52 -312 -80 -51 -18 -68 -19 -150 -10 -87 9
-128 6 -128 -9 0 -4 7 -15 14 -25 11 -14 25 -17 72 -15 53 3 56 4 39 18 -11 9
-16 10 -11 3 5 -10 -4 -13 -37 -13 -31 0 -47 5 -51 15 -4 13 8 15 82 15 60 0
82 -3 72 -10 -23 -15 -16 -13 182 32 172 39 193 42 343 42 l160 1 123 -57 c67
-31 122 -55 122 -53 0 8 -169 101 -221 122 -65 26 -204 37 -299 24z"/>
<path d="M694 530 c-111 -25 -156 -45 -152 -67 5 -25 54 -30 353 -39 333 -9
315 9 -30 31 -143 9 -261 18 -263 20 -4 3 165 58 213 68 13 3 9 5 -10 5 -16 0
-66 -8 -111 -18z"/>
<path d="M1260 446 c0 -2 53 -9 118 -15 176 -18 327 -58 349 -93 3 -6 2 -9 -3
-6 -72 34 -109 48 -127 47 -16 0 -10 -5 18 -16 22 -9 52 -25 67 -35 14 -10 38
-17 52 -16 l25 2 -22 24 c-58 62 -224 112 -373 112 -57 0 -104 -2 -104 -4z"/>
<path d="M225 410 c-17 -33 -20 -107 -5 -130 7 -11 10 3 10 47 0 34 4 73 10
87 13 35 4 33 -15 -4z"/>
<path d="M717 389 c-8 -11 -13 -29 -10 -40 5 -16 0 -19 -28 -20 -19 -1 -45 -5
-59 -9 -19 -6 -10 -8 35 -9 l60 -1 34 -65 c18 -36 36 -64 38 -61 2 2 -7 30
-21 62 l-24 59 176 6 c98 4 211 7 252 9 65 1 71 3 45 12 -16 5 -135 11 -262
11 -228 2 -233 2 -233 23 0 11 5 25 12 32 7 7 9 12 6 12 -4 0 -13 -9 -21 -21z"/>
<path d="M1250 360 c-13 -8 -12 -10 3 -10 23 0 22 -4 -11 -53 -45 -66 -49 -75
-29 -58 30 24 89 110 82 121 -8 13 -25 13 -45 0z"/>
<path d="M355 332 c-41 -26 -54 -43 -60 -83 -4 -26 -3 -29 4 -14 15 34 57 66
98 76 51 11 119 -21 145 -71 13 -25 18 -29 18 -15 0 35 -35 88 -71 107 -43 23
-96 23 -134 0z"/>
<path d="M1418 324 c-29 -15 -58 -61 -58 -91 0 -13 6 -8 20 14 50 82 160 82
210 0 24 -39 28 -11 5 33 -29 55 -117 77 -177 44z"/>
</g>
</svg>
