<?xml version="1.0" standalone="no"?>
<!DOCTYPE svg PUBLIC "-//W3C//DTD SVG 20010904//EN"
 "http://www.w3.org/TR/2001/REC-SVG-20010904/DTD/svg10.dtd">
<svg version="1.0" xmlns="http://www.w3.org/2000/svg"
 width="277.000000pt" height="127.000000pt" viewBox="0 0 277.000000 127.000000"
 preserveAspectRatio="xMidYMid meet">

<g transform="translate(0.000000,127.000000) scale(0.100000,-0.100000)"
fill="#000000" stroke="none">
<path d="M663 1153 c-65 -3 -95 -8 -103 -18 -7 -9 -30 -15 -53 -15 -34 0 -46
-6 -78 -41 -53 -58 -176 -220 -188 -249 -5 -14 -15 -71 -21 -127 -10 -86 -16
-105 -36 -124 -22 -21 -24 -30 -24 -118 0 -81 3 -99 22 -127 29 -42 71 -66
118 -68 35 -1 38 -3 48 -41 43 -157 258 -209 377 -91 23 24 48 59 54 79 12 37
21 44 35 30 4 -4 222 -6 484 -5 262 1 531 -2 597 -7 68 -5 124 -5 130 0 17 17
32 9 38 -18 9 -41 61 -98 110 -122 58 -28 146 -28 204 0 49 24 98 78 114 126
11 35 19 39 36 22 12 -12 101 7 122 27 10 9 16 43 19 104 4 76 2 94 -14 117
-11 16 -26 44 -34 63 -27 64 -65 119 -88 129 -57 27 -341 88 -512 111 -66 9
-92 17 -120 39 -78 61 -266 183 -344 223 -22 11 -47 29 -55 39 -12 14 -42 23
-121 34 -103 14 -507 37 -585 33 -22 -1 -81 -4 -132 -5z m-159 -96 c-9 -18
-44 -78 -76 -135 -33 -57 -59 -105 -56 -107 2 -2 91 -9 198 -15 303 -16 930
-57 1000 -65 89 -10 239 -20 249 -17 6 2 11 13 11 24 0 19 4 20 78 13 262 -23
550 -76 629 -116 21 -11 73 -99 73 -124 0 -7 7 -18 15 -25 8 -7 15 -20 15 -28
0 -11 -10 -6 -31 16 -17 18 -36 32 -42 32 -7 0 -7 -4 1 -12 17 -17 15 -28 -5
-21 -12 5 -14 3 -8 -8 4 -8 -12 6 -36 30 -58 57 -103 79 -189 91 -127 18 -231
-10 -293 -80 -39 -43 -59 -57 -55 -39 2 6 -3 14 -9 16 -7 3 -14 -4 -14 -14 -1
-13 -2 -14 -5 -3 -4 14 -61 16 -492 14 -268 -1 -497 -5 -510 -9 -16 -5 -22 -4
-20 5 2 7 -3 15 -9 17 -8 3 -13 -3 -13 -13 0 -17 -1 -17 -12 -1 -9 12 -17 14
-28 7 -8 -5 -11 -10 -7 -10 5 0 6 -4 2 -9 -3 -6 -25 9 -48 33 -78 78 -186 112
-308 96 -90 -11 -135 -33 -192 -93 -34 -36 -47 -45 -43 -29 7 21 -3 30 -18 15
-15 -15 -45 -12 -49 5 -3 9 -5 1 -6 -18 -2 -48 -21 -19 -21 32 0 29 6 41 24
53 21 14 25 26 31 98 12 141 20 164 97 265 82 107 134 157 165 159 22 2 23 1
7 -30z m163 -616 c68 -50 93 -152 53 -218 -27 -44 -32 -42 -9 4 20 40 25 88
10 98 -17 10 -81 -28 -87 -51 -6 -25 18 -79 43 -92 14 -9 14 -11 -5 -21 -17
-9 -22 -9 -23 1 0 14 -46 54 -73 64 -11 4 -30 -8 -57 -34 -24 -24 -46 -39 -55
-35 -18 7 -18 23 0 23 15 0 42 83 31 99 -9 15 -75 42 -86 35 -16 -9 -10 -58
12 -93 11 -18 18 -36 15 -38 -3 -3 -14 10 -26 28 -17 28 -20 45 -17 95 8 107
68 164 173 164 51 0 67 -5 101 -29z m1710 0 c43 -31 73 -90 73 -143 0 -37 -20
-98 -32 -98 -5 0 -2 13 7 30 17 32 19 68 6 88 -7 11 -14 11 -42 -3 -58 -30
-62 -52 -23 -110 36 -53 13 -62 -35 -13 -21 21 -44 38 -51 38 -7 0 -30 -18
-52 -39 -23 -24 -45 -38 -54 -34 -18 7 -18 19 0 26 17 7 40 72 32 93 -7 18
-73 47 -86 39 -15 -10 -11 -46 10 -93 11 -23 15 -40 9 -36 -19 11 -39 71 -39
115 0 56 26 106 73 140 34 25 50 29 102 29 53 0 68 -4 102 -29z m-1260 13 c-3
-3 -12 -4 -19 -1 -8 3 -5 6 6 6 11 1 17 -2 13 -5z m386 -1 c-13 -2 -33 -2 -45
0 -13 2 -3 4 22 4 25 0 35 -2 23 -4z"/>
<path d="M1108 703 c7 -3 16 -2 19 1 4 3 -2 6 -13 5 -11 0 -14 -3 -6 -6z"/>
<path d="M1140 702 c0 -4 9 -8 19 -8 11 0 17 4 15 8 -7 10 -34 10 -34 0z"/>
<path d="M485 431 c-42 -26 -71 -60 -59 -70 5 -5 25 -12 45 -16 31 -6 39 -3
53 16 19 28 22 89 4 89 -7 0 -26 -8 -43 -19z"/>
<path d="M583 434 c-3 -8 -1 -29 4 -47 8 -28 13 -32 48 -35 78 -5 84 28 15 76
-39 26 -58 28 -67 6z"/>
<path d="M530 324 c-10 -11 -11 -23 -4 -42 12 -33 52 -42 71 -16 17 23 16 39
-3 58 -20 20 -48 20 -64 0z m42 -29 c0 -5 -5 -11 -11 -13 -6 -2 -11 4 -11 13
0 9 5 15 11 13 6 -2 11 -8 11 -13z"/>
<path d="M2195 431 c-42 -26 -71 -60 -59 -70 5 -5 25 -12 46 -16 32 -6 38 -4
53 18 17 27 17 78 0 84 -5 1 -23 -5 -40 -16z"/>
<path d="M2293 434 c-3 -8 -1 -29 4 -47 8 -28 13 -32 48 -35 78 -5 84 28 15
76 -39 26 -58 28 -67 6z"/>
<path d="M2246 324 c-19 -18 -20 -28 -6 -55 20 -37 80 -15 80 30 0 14 -29 41
-45 41 -7 0 -21 -7 -29 -16z m44 -29 c0 -8 -4 -15 -9 -15 -13 0 -22 16 -14 24
11 11 23 6 23 -9z"/>
</g>
</svg>
