<?xml version="1.0" standalone="no"?>
<!DOCTYPE svg PUBLIC "-//W3C//DTD SVG 20010904//EN"
 "http://www.w3.org/TR/2001/REC-SVG-20010904/DTD/svg10.dtd">
<svg version="1.0" xmlns="http://www.w3.org/2000/svg"
 width="297.000000pt" height="110.000000pt" viewBox="0 0 297.000000 110.000000"
 preserveAspectRatio="xMidYMid meet">

<g transform="translate(0.000000,110.000000) scale(0.100000,-0.100000)"
fill="#000000" stroke="none">
<path d="M1000 1004 c-126 -17 -230 -45 -450 -120 -138 -47 -180 -57 -257 -61
-67 -4 -96 -10 -105 -21 -11 -14 -10 -15 7 -7 30 13 247 5 665 -25 74 -5 209
-14 300 -19 91 -6 226 -15 300 -21 74 -5 212 -15 305 -20 219 -14 618 -48 715
-61 139 -19 346 -76 381 -106 9 -8 19 -32 22 -54 3 -22 13 -49 22 -59 9 -10
15 -25 12 -32 -4 -9 -6 -8 -6 3 -1 16 -61 76 -61 62 0 -5 -5 -1 -10 7 -8 12
-10 12 -11 -5 0 -11 -3 -15 -5 -9 -7 16 -97 5 -107 -13 -7 -12 -14 -7 -32 19
-27 39 -72 76 -132 107 -34 17 -60 21 -131 21 -108 0 -168 -26 -236 -101 -36
-40 -45 -46 -50 -32 -6 14 -9 15 -15 4 -6 -9 -14 -10 -27 -3 -11 5 -35 7 -54
5 -45 -6 -307 -5 -427 1 -77 4 -93 2 -93 -10 0 -9 -11 -14 -36 -14 -21 0 -33
4 -29 10 3 6 2 10 -4 10 -5 0 -12 -6 -15 -12 -5 -10 -7 -10 -12 0 -3 6 -14 12
-24 12 -10 0 -21 -6 -24 -12 -5 -10 -7 -10 -12 0 -7 15 -164 17 -164 2 0 -14
-37 -12 -44 3 -5 10 -7 10 -12 0 -7 -15 -40 -17 -49 -3 -3 5 -41 10 -83 10
-42 0 -88 2 -102 3 -15 1 -24 -3 -23 -10 5 -22 -23 -3 -53 36 -54 72 -133 109
-243 112 -92 3 -156 -24 -225 -94 -33 -34 -61 -55 -65 -49 -6 10 -61 12 -61 2
0 -3 -13 -5 -30 -6 -16 -1 -27 3 -24 7 3 5 0 9 -5 9 -17 0 -26 -4 -24 -11 1
-4 -7 -5 -17 -2 -16 4 -20 0 -20 -18 0 -30 -12 -17 -16 19 -2 19 5 36 21 55
16 17 25 38 25 60 0 40 27 134 46 162 16 22 18 35 6 35 -21 0 -72 -137 -72
-193 0 -17 -12 -39 -31 -60 -29 -30 -30 -36 -24 -81 8 -66 30 -101 85 -136 55
-35 168 -66 183 -51 18 18 24 13 47 -34 39 -80 112 -125 202 -125 85 1 157 45
203 125 10 16 13 17 35 3 21 -13 60 -13 265 -6 237 8 771 2 967 -11 91 -6 103
-5 125 13 21 16 26 17 34 5 5 -8 9 -17 9 -20 0 -3 15 -20 33 -39 97 -100 264
-92 340 17 34 47 44 51 62 27 10 -14 23 -16 78 -10 74 8 142 39 169 76 10 14
23 50 30 81 11 52 10 58 -10 86 -12 16 -25 49 -31 72 -5 23 -17 49 -28 56 -53
39 -262 103 -461 140 -75 14 -146 31 -157 37 -237 136 -540 250 -705 268 -134
14 -426 11 -550 -6z m-329 -537 c78 -42 115 -153 74 -224 -15 -27 -16 -27 -9
-3 3 14 8 42 11 63 4 30 2 37 -12 37 -22 0 -73 -30 -80 -47 -9 -24 29 -88 50
-86 18 1 17 -1 -5 -19 -19 -15 -25 -17 -29 -6 -7 22 -54 58 -76 58 -22 0 -75
-41 -75 -59 0 -15 -13 -14 -36 5 -10 8 -13 13 -7 9 8 -4 21 11 35 40 l23 47
-28 24 c-16 13 -39 24 -53 24 -20 0 -24 -5 -24 -27 0 -16 7 -41 15 -57 9 -16
13 -31 10 -34 -2 -3 -12 11 -20 31 -64 155 90 301 236 224z m1799 16 c19 -3
51 -24 75 -47 36 -34 44 -49 50 -93 7 -51 -7 -123 -25 -123 -4 0 -1 19 8 43
16 45 12 77 -10 77 -25 0 -78 -40 -78 -58 0 -11 12 -36 26 -57 20 -30 23 -40
12 -46 -8 -5 -14 -4 -16 4 -4 17 -64 57 -86 57 -10 0 -34 -16 -52 -36 -42 -43
-58 -37 -33 13 29 56 25 80 -15 100 -52 24 -66 14 -55 -38 6 -24 15 -49 21
-56 7 -9 7 -13 0 -13 -6 0 -18 20 -27 44 -15 38 -16 52 -5 95 15 64 42 98 94
122 45 20 66 22 116 12z m-1177 -40 c-7 -2 -19 -2 -25 0 -7 3 -2 5 12 5 14 0
19 -2 13 -5z m340 0 c-7 -2 -19 -2 -25 0 -7 3 -2 5 12 5 14 0 19 -2 13 -5z"/>
<path d="M499 436 c-63 -43 -57 -76 13 -76 42 0 49 9 52 62 1 42 -18 46 -65
14z"/>
<path d="M610 421 c0 -50 18 -65 67 -56 21 4 41 9 46 12 20 12 -61 83 -95 83
-14 0 -18 -8 -18 -39z"/>
<path d="M560 340 c-25 -25 -25 -31 0 -58 29 -31 47 -27 69 15 10 19 8 26 -9
43 -25 25 -35 25 -60 0z m36 -37 c-10 -10 -19 5 -10 18 6 11 8 11 12 0 2 -7 1
-15 -2 -18z"/>
<path d="M2340 438 c-66 -45 -63 -78 6 -78 40 0 54 16 54 62 0 45 -12 48 -60
16z"/>
<path d="M2443 423 c9 -53 26 -67 76 -58 24 4 41 12 41 20 0 22 -69 75 -97 75
-24 0 -25 -2 -20 -37z"/>
<path d="M2400 342 c-43 -35 4 -97 49 -66 27 19 24 51 -5 71 -19 12 -24 11
-44 -5z m37 -38 c-9 -9 -28 6 -21 18 4 6 10 6 17 -1 6 -6 8 -13 4 -17z"/>
<path d="M1555 650 c4 -6 11 -8 16 -5 14 9 11 15 -7 15 -8 0 -12 -5 -9 -10z"/>
</g>
</svg>
